# xmcd CD database file
#
# Track frame offsets:
#	150
#	26469
#	56608
#	78841
#	91788
#	113981
#	139410
#	156682
#	184552
#	210412
#	240227
#	278484
#	320018
#
# Disc length: 4293 seconds
#
# Revision: 0
# Processed by: cddbd v1.5.2PL0 Copyright (c) Steve Scherf et al.
# Submitted via: CDex 1.70beta2
#
DISCID=a710c30d
DTITLE=Steve Berry - The Paris Vendetta Disc 6
DYEAR=2009
DGENRE=Audio Book
TTITLE0=The Paris Vendetta Disc 6-01
TTITLE1=The Paris Vendetta Disc 6-02
TTITLE2=The Paris Vendetta Disc 6-03
TTITLE3=The Paris Vendetta Disc 6-04
TTITLE4=The Paris Vendetta Disc 6-05
TTITLE5=The Paris Vendetta Disc 6-06
TTITLE6=The Paris Vendetta Disc 6-07
TTITLE7=The Paris Vendetta Disc 6-08
TTITLE8=The Paris Vendetta Disc 6-09
TTITLE9=The Paris Vendetta Disc 6-10
TTITLE10=The Paris Vendetta Disc 6-11
TTITLE11=The Paris Vendetta Disc 6-12
TTITLE12=The Paris Vendetta Disc 6-13
EXTD=YEAR: 2009
EXTT0=
EXTT1=
EXTT2=
EXTT3=
EXTT4=
EXTT5=
EXTT6=
EXTT7=
EXTT8=
EXTT9=
EXTT10=
EXTT11=
EXTT12=
PLAYORDER=
